<?xml version="1.0" encoding="utf-8"?>
<!-- Generator: Adobe Illustrator 23.1.1, SVG Export Plug-In . SVG Version: 6.00 Build 0)  -->
<svg version="1.1" id="Layer_1" xmlns="http://www.w3.org/2000/svg" xmlns:xlink="http://www.w3.org/1999/xlink" x="0px" y="0px"
	 viewBox="0 0 512 512" style="enable-background:new 0 0 512 512;" xml:space="preserve">
<style type="text/css">
	.st0{fill:#1479ff;}
</style>
<g>
	<path class="st0" d="M223.2,288.8v-264H99.4c-20.6,0-39.7,9.6-53.9,27c-13.3,16.4-20.6,37.9-20.6,60.6v374.8h374.5
		c48.4,0,87.7-34.4,87.7-76.6V288.8H223.2z M59.9,112.4c0-14.7,4.5-28.4,12.8-38.5c7.4-9.1,16.9-14.1,26.7-14.1h88.8v339.8
		c0,16.6-5.8,32-16,42.1c-4.8,4.8-12.7,10.4-23.3,10.4h-89C59.9,452.1,59.9,112.4,59.9,112.4z M452.1,410.6
		c0,23-23.6,41.6-52.7,41.6h-191c9.5-15,14.8-33.4,14.8-52.6v-75.8h228.9L452.1,410.6L452.1,410.6z"/>
	<g>
		<path class="st0" d="M427.8,241.1h-157V84c0-32,26-58,58-58h157.1v157C485.9,215,459.8,241.1,427.8,241.1z M306.8,205.1h121
			c12.2,0,22.1-9.9,22.1-22.1V62H328.8c-12.1,0-22,9.9-22,22V205.1z"/>
	</g>
</g>
</svg>
