<?xml version="1.0" encoding="utf-8"?>
<!-- Generator: Adobe Illustrator 23.1.1, SVG Export Plug-In . SVG Version: 6.00 Build 0)  -->
<svg version="1.1" id="Layer_1" xmlns="http://www.w3.org/2000/svg" xmlns:xlink="http://www.w3.org/1999/xlink" x="0px" y="0px"
	 viewBox="0 0 256 188.8" style="enable-background:new 0 0 256 188.8;" xml:space="preserve">
<style type="text/css">
	.st0{opacity:0.43;fill:#CEE5ED;enable-background:new    ;}
	.st1{fill:#AAC6CE;}
	.st2{fill:#85B0BA;}
	.st3{fill:#62BDF4;}
	.st4{fill:#34648C;}
	.st5{fill:#67B8EF;}
	.st6{opacity:0.25;fill:#34648C;enable-background:new    ;}
	.st7{fill:#CEE5ED;}
	.st8{fill:#F2BF75;}
	.st9{fill:#1E394C;}
	.st10{fill:#0F2A3F;}
	.st11{fill:#EA9249;}
	.st12{fill:#80A9B2;}
	.st13{opacity:0.67;fill:#EA9249;enable-background:new    ;}
	.st14{opacity:0.29;fill:#34648C;enable-background:new    ;}
	.st15{opacity:0.48;fill:#1E394C;enable-background:new    ;}
	.st16{fill:#3E8CCC;}
	.st17{fill:#2173AA;}
	.st18{fill:#1A3651;}
</style>
<g>
	<ellipse class="st0" cx="128" cy="173.6" rx="121" ry="4.8"/>
	<g>
		<rect x="83" y="116.3" class="st1" width="5.5" height="52.6"/>
		<rect x="83" y="116.3" class="st2" width="5.5" height="7.4"/>
		<path class="st1" d="M110.5,168.9H62.7c-1.3,0-2.3,1.1-2.3,2.3v2.5h52.5v-2.5C112.9,170,111.8,168.9,110.5,168.9z"/>
		<path class="st1" d="M72.7,116.3h38.1c-13.9-5-8.5-51.9-5.9-69.7c0.5-3.6-2.3-6.8-5.9-6.8H73.6c-5.2,0-9.6,3.8-10.3,9
			c-2.2,16.2-5.7,49.7,1.2,62.7C66.1,114.5,69.3,116.3,72.7,116.3z"/>
	</g>
	<g>
		<path class="st3" d="M203.8,10.4h-45.6c-2.3,0-4.2,1.9-4.2,4.2v20.6c0,2.3,1.9,4.2,4.2,4.2h3.2v5c0,0.7,0.8,1.1,1.3,0.6l6.2-5.6
			h34.9c2.3,0,4.2-1.9,4.2-4.2V14.7C208.1,12.3,206.2,10.4,203.8,10.4z"/>
		<g>
			<circle class="st4" cx="169.9" cy="25.2" r="1.9"/>
			<circle class="st4" cx="181.4" cy="25.2" r="1.9"/>
			<circle class="st4" cx="192.1" cy="25.2" r="1.9"/>
		</g>
	</g>
	<g>
		<g>
			<path class="st5" d="M54.4,65.7c0-5-3.6-10.1-7.9-10.1c-4.4,0-7.9,5-7.9,10.1c0,5,3.6,9.1,7.9,9.1C50.9,74.8,54.4,70.7,54.4,65.7
				z"/>
			<path class="st6" d="M46.5,55.6c-0.7,0-1.4,0.1-2,0.4c3.4,1.3,5.9,5.5,5.9,9.7c0,4.2-2.5,7.8-5.9,8.8c0.7,0.2,1.3,0.3,2,0.3
				c4.4,0,7.9-4.1,7.9-9.1C54.4,60.6,50.9,55.6,46.5,55.6z"/>
		</g>
		<g>
			<path class="st7" d="M37.4,71.6l1.4,12.9c0.2,1.6,1.5,2.8,3.2,2.8h8.2c1.6,0,3-1.2,3.2-2.8l1.4-12.9c0.1-0.7-0.5-1.3-1.2-1.3h-15
				C37.9,70.3,37.4,70.9,37.4,71.6z"/>
			<path class="st1" d="M38.6,72.2h15c0.5,0,0.8,0.3,1,0.7l0.1-1.3c0.1-0.7-0.5-1.3-1.2-1.3h-15c-0.7,0-1.3,0.6-1.2,1.3l0.1,1.3
				C37.8,72.5,38.2,72.2,38.6,72.2z"/>
			<path class="st1" d="M53.6,70.3h-5.2c0.7,0,1.3,0.6,1.2,1.3l-1.4,12.9c-0.2,1.6-1.5,2.8-3.2,2.8h5.2c1.6,0,3-1.2,3.2-2.8
				l1.4-12.9C54.9,70.9,54.3,70.3,53.6,70.3z"/>
		</g>
	</g>
	<g>
		<g>
			<g>
				<polygon class="st8" points="119.4,161.1 118.9,164.8 121.7,168.5 128.9,165 129.7,161.5 120.7,160.2 				"/>
				<path class="st9" d="M125.2,173.1l0.7-0.9c0.1-0.2,0.4-0.2,0.5,0l0.7,0.9c0.3,0.4,0.7,0.6,1.2,0.5l16.7-0.3
					c0.3-0.3,0.4-0.9,0-1.3c-2.4-2.5-15.6-6.7-16.3-7.1c-0.7-0.4-4.7,2.8-10-0.1c0,0-0.9,4.2-1,6.9c-0.1,1.1,0.8,2,1.9,2l4.2-0.1
					C124.5,173.7,124.9,173.5,125.2,173.1z"/>
				<path class="st9" d="M88.8,98.2c0,0-6.9,7.7,5.8,16c8.9,5.8,15.9,4.1,21.5,7.6c1.3,0.8,2.3,2.1,2.4,3.6l0.3,35.8l0.7,0.3
					c3.4,1.7,7.3,1.7,10.7,0.1l0,0l5.1-40.9c0.2-2.8-1.3-5.2-3.1-7.4c-9.7-12.3-26.9-16.5-31.2-17.2C95.2,95.2,88.8,98.2,88.8,98.2z
					"/>
			</g>
			<g>
				<polygon class="st8" points="91.8,161.1 91.2,164.8 94,168.5 101.2,165.1 102.1,161.7 93.1,160.2 				"/>
				<path class="st9" d="M97.4,173.2l0.8-0.9c0.1-0.2,0.4-0.2,0.5,0l0.7,0.9c0.3,0.4,0.7,0.6,1.2,0.6l16.7-0.1
					c0.3-0.3,0.4-0.9,0-1.3c-2.4-2.5-15.5-6.9-16.2-7.3c-0.7-0.4-4.7,2.7-10-0.2c0,0-0.9,4.2-1.1,6.9c-0.1,1.1,0.8,2,1.9,2h4.2
					C96.7,173.7,97.2,173.5,97.4,173.2z"/>
				<path class="st9" d="M67.7,91.5c0,0-8.4,9.4,3.7,19.9c8.5,7.4,16.2,4.2,21.5,8.8c1.3,1.1,2.1,2.5,2,4.1l-3.8,36.4l0.3,0.2
					c3.3,2.2,7.6,2.5,11.2,0.8l0,0l9.5-38.4c0.6-2.9-0.7-5.6-2.2-8.2c-8.4-14.4-21.7-22.9-26.1-24.3C78,89.1,67.7,91.5,67.7,91.5z"
					/>
			</g>
			<path class="st10" d="M114,120.8c-0.6-0.3-1.3-0.5-2-0.7c-0.4-1.7-1.2-3.4-2.1-5c-4.2-7.1-9.5-12.8-14.4-16.9
				c3-0.5,4.6-1.2,5.4-2c1.7,0.3,5,1,9.1,2.5C114.2,105.6,114.2,116.8,114,120.8z"/>
		</g>
		<path class="st7" d="M90.3,42c0,0-12.1-1.6-17.1,7.8s-12.5,46.4-6,47.6c2.9,0.5,10.7,2.5,19.3,1.8c11.8-0.9,14.4-2,15.2-4.2
			l7.5-34.5c0.2-4.7-1.9-9.3-5.7-12.2C97.5,43.8,90.3,42,90.3,42z"/>
		<path class="st1" d="M109.2,57.5c0,0,0.2,20.8,6.7,22c6.5,1.3,23.9,0.9,23.9,0.9V87h-37.3L109.2,57.5z"/>
		<path class="st11" d="M100.2,48.1l1.5-7.3l-9.5-7.3l-1.8,8.7C90.3,42.2,93.3,55.4,100.2,48.1z"/>
		<path class="st9" d="M112.3,26.8c0,0-5,2.4-12.3-2c0,0-1.7,3-6.6,5.8c0,0-2.5-4.3-4-1.1c-0.4,1-0.7,1.8-0.7,2.6
			c-4.6-5.9-1.4-13.7,2.9-17.9c4-4,12.8-2.4,18.3-0.2c5.8,2.3,6.9-1.7,6.9-1.7C124.2,22.5,112.3,26.8,112.3,26.8z"/>
		<path class="st8" d="M93.5,30.5c0,0-2.5-4.3-4-1.1c-1.8,3.9,0.2,6.3,2.6,6.3c0,0,1.9,10.1,11.2,9.4s10.6-15.6,9.1-18.3
			c0,0-5,2.4-12.3-2C100,24.7,98.3,27.8,93.5,30.5z"/>
		<g>
			<path class="st7" d="M173.7,54.1H135c-1.9,0-3.5,1.3-3.9,3.2L126,82.5h46.8l4.8-23.6C178.1,56.4,176.2,54.1,173.7,54.1z"/>
			<path class="st12" d="M173.1,82.5h-64.9c-0.8,0-1.4,0.6-1.4,1.4v1.6c0,0.8,0.6,1.4,1.4,1.4h64.9c0.8,0,1.4-0.6,1.4-1.4v-1.6
				C174.6,83.1,173.9,82.5,173.1,82.5z"/>
			<path class="st1" d="M172.6,82.5h-47.2c1.1,0,1.9,0.9,1.9,1.9V85c0,1.1-0.9,1.9-1.9,1.9h47.2c1.1,0,1.9-0.9,1.9-1.9v-0.6
				C174.6,83.3,173.7,82.5,172.6,82.5z"/>
		</g>
		<path class="st7" d="M110.8,81.1c-7.5-0.9-28.6-3-32.2-3.4C74,77.2,83.9,58.8,85,52.5c1.1-6.3-3.7-6.5-3.7-6.5
			c-2.7-0.3-5.7,0-8.2,3.8c-5.2,7.8-10.9,30.6-7.9,36.2c0.4,0.7,1,1.1,1.8,1.1h43.7L110.8,81.1L110.8,81.1z"/>
		<path class="st1" d="M110.8,81.1c0,0-27.2-1.9-33-2.7c-4.5-0.6,4.9-19.5,6-25.8s-3.8-6-3.8-6c-1.2-0.2-3,0-4.2,0.4
			c1.8-1.2,3.7-1.3,5.5-1.1c0,0,4.8,0.2,3.7,6.5c-1.1,6.3-9.6,24.3-6.7,25C81.9,78.4,103.3,80.2,110.8,81.1z"/>
		<path class="st8" d="M110.8,87.2H121c0.8,0,1.2-0.8,0.8-1.5c-0.9-1.5-2.4-3.5-3.5-3.9c-0.7-0.2-5.6,0-7.4,0.2L110.8,87.2
			L110.8,87.2z"/>
		<path class="st13" d="M112.3,26.8c0,0-0.8,0.4-2.3,0.6c-0.1,0.7-0.3,2-0.5,3.3c-0.2,1.8,0.7,7.3,0.2,7.3c-0.6,0-1.7,0-1.7,0
			s-0.8,8-8.8,6.7c-0.1,0-0.1,0-0.2,0c1.2,0.4,2.6,0.7,4.2,0.5C112.5,44.4,113.8,29.5,112.3,26.8z"/>
	</g>
	<g>
		<g>
			<path class="st5" d="M228.5,142.7c0,0,12.7-6.3,9.3-15.9c-3.5-9.6-5.6-10,1-15.4s16.2-18.9,4.1-20c-12.1-1-11.5,15.1-21.6,17.3
				C211.2,111,205.7,153.2,228.5,142.7z"/>
			<path class="st6" d="M218.5,143.7c2.4,1.1,5.7,1,10-0.9c0,0,12.7-6.3,9.3-15.9c-3.5-9.6-5.6-10,1-15.4s16.2-18.9,4.1-20
				c-1.2-0.1-2.3,0-3.2,0.2c3.4,1.4,6.8,4.2,2.4,9.4c-7.3,8.7-11.2,11.7-10.4,17.3C232.5,123.9,232,136.3,218.5,143.7z"/>
		</g>
		<g>
			<path class="st5" d="M206.9,142.4c0,0-11.2-0.4-10.6-8.5c0.6-8,0.9-8.4-6.1-10.9c-12.4-4.5-2.6-28.3,7.5-13.3
				c7,10.4,10.1,8.1,14.7,8.9C217,119.4,227,146,206.9,142.4z"/>
			<path class="st14" d="M212.4,118.6c-4.6-0.8-7.6,1.5-14.7-8.9c-5.3-7.9-10.5-5.1-12.5,0c3-0.9,7.5-1.5,8.1,3.4
				c0.7,6.3,15.5,16.6,15.2,29.5c0.2,0,0.4,0,0.6,0c2.1-5.6,5-13,7.4-19.2C215.1,120.7,213.6,118.8,212.4,118.6z"/>
		</g>
		<g>
			<path class="st4" d="M209.5,142c0,0-13.9-13.6-9.2-15.9c4.7-2.3,14.1,5.2,8.9-2.9c-5.2-8.1-11.2-20.7-4.1-18.7
				c7.2,2,7.7,4.2,6.8-5.3c-1.1-12.2,5.7-18.5,12.1-14.5c6.4,4-5.5,30.9-1.1,28s8.1-5.3,9-1.8s-12.7,17.3-7.6,15
				c6.3-2.9,7.2,2.3,5.2,5.5C227.5,134.6,219.3,153.7,209.5,142z"/>
			<path class="st15" d="M229.5,131.3c2-3.2,1.1-8.4-5.2-5.5c-5,2.3,8.6-11.5,7.6-15c-0.9-3.5-4.6-1.1-9,1.8c-4.4,2.9,7.5-24,1.1-28
				c-3-1.8-6-1.5-8.4,0.7c3.3,0.8,6,3.5,4.1,10.7c-3.9,15.3-6.3,28,0.8,24.3c6.7-3.5-7.8,12.7-7.9,24.4
				C221,149.6,227.7,134.2,229.5,131.3z"/>
		</g>
		<g>
			<path class="st7" d="M199.9,143.6l2.7,24.4c0.3,3,2.9,5.3,6,5.3h15.5c3.1,0,5.6-2.3,6-5.3l2.7-24.4c0.1-1.3-0.9-2.5-2.2-2.5
				h-28.4C200.8,141.2,199.7,142.3,199.9,143.6z"/>
			<path class="st1" d="M230.5,141.2h-9.8c1.3,0,2.4,1.2,2.2,2.5l-2.7,24.4c-0.3,3-2.9,5.3-6,5.3h9.8c3.1,0,5.6-2.3,6-5.3l2.7-24.4
				C232.9,142.3,231.8,141.2,230.5,141.2z"/>
		</g>
	</g>
	<g>
		<g>
			<path class="st16" d="M201.2,87.2H32.9c-1.4,0-2.5,1.1-2.5,2.5v2.9c0,1.4,1.1,2.5,2.5,2.5h168.3c1.4,0,2.5-1.1,2.5-2.5v-3
				C203.7,88.3,202.6,87.2,201.2,87.2z"/>
			<path class="st17" d="M200.3,87.2H33.8c-1.9,0-3.4,1.5-3.4,3.4v1.1c0,0.4,0.1,0.7,0.2,1c0.4-1.4,1.7-2.4,3.2-2.4h166.5
				c1.5,0,2.8,1,3.2,2.4c0.1-0.3,0.2-0.7,0.2-1v-1.1C203.7,88.7,202.2,87.2,200.3,87.2z"/>
		</g>
		<g>
			<g>
				<g>
					<polygon class="st4" points="86.5,173.5 80.9,173.5 42.2,95.1 47.7,95.1 					"/>
				</g>
			</g>
			<g>
				<g>
					<polygon class="st4" points="25.2,173.5 30.8,173.5 69.5,95.1 63.9,95.1 					"/>
				</g>
			</g>
			<g>
				<g>
					<polygon class="st4" points="206.3,173.5 200.7,173.5 162,95.1 167.6,95.1 					"/>
				</g>
			</g>
			<g>
				<g>
					<polygon class="st4" points="145,173.5 150.6,173.5 189.3,95.1 183.7,95.1 					"/>
				</g>
			</g>
			<g>
				<g>
					<polygon class="st18" points="49.3,98.2 47.7,95.1 42.2,95.1 43.7,98.2 					"/>
				</g>
			</g>
			<g>
				<g>
					<polygon class="st18" points="67.9,98.2 69.5,95.1 63.9,95.1 62.4,98.2 					"/>
				</g>
			</g>
			<g>
				<g>
					<polygon class="st18" points="169.1,98.2 167.6,95.1 162,95.1 163.6,98.2 					"/>
				</g>
			</g>
			<g>
				<g>
					<polygon class="st18" points="187.8,98.2 189.3,95.1 183.7,95.1 182.2,98.2 					"/>
				</g>
			</g>
		</g>
	</g>
</g>
</svg>
